# xmcd
#
# Track frame offsets: 
#        150
#        4246
#        20989
#        36454
#        57578
#        80914
#        98981
#        117942
#        137644
#        155950
#        180567
#        201024
#        219616
#        239499
#        256055
#        273024
#        291196
#        305526
#
# Disc length: 4238 seconds
#
# Revision: 3
# Processed by: cddbd v1.5.2PL0 Copyright (c) Steve Scherf et al.
# Submitted via: ExactAudioCopy v1.0b3
#
DISCID=14108c12
DTITLE=Ice Cube - Raw Footage
DYEAR=2008
DGENRE=Rap
TTITLE0=What Is A Pyroclastic Flow?
TTITLE1=I Got My Locs On (feat. Young Jeezy)
TTITLE2=It Takes A Nation
TTITLE3=Gangsta Rap Made Me Do It
TTITLE4=Hood Mentality
TTITLE5=Why Me? (feat. Musiq Soulchild)
TTITLE6=Cold Places
TTITLE7=Jack N The Box
TTITLE8=Do Ya Thang
TTITLE9=Thank God
TTITLE10=Here He Come (feat. Doughboy)
TTITLE11=Get Money, Spend Money, No Money
TTITLE12=Get Use To It (feat. WC and The Game)
TTITLE13=Tomorrow
TTITLE14=Stand Tall
TTITLE15=Take Me Away (feat. Butch Cassidy)
TTITLE16=Believe It Or Not [Bonus Track]
TTITLE17=Don't Make Me Hurt Ya Feelings [Bonus Track]
EXTD=
EXTT0=
EXTT1=
EXTT2=
EXTT3=
EXTT4=
EXTT5=
EXTT6=
EXTT7=
EXTT8=
EXTT9=
EXTT10=
EXTT11=
EXTT12=
EXTT13=
EXTT14=
EXTT15=
EXTT16=
EXTT17=
PLAYORDER=
